# Blender v2.82 (sub 7) OBJ File: 'street.blend'
# www.blender.org
mtllib street.mtl
o Cube
v 250.971283 7.849352 -84.878357
v 110.179504 7.849352 28.321201
v 29.204224 7.849352 -108.652649
o Cube.003_Cube.002
v 614.122986 12.522993 -410.495544
v 614.122986 16.012911 -410.495544
v 608.914368 12.522993 141.554642
v 608.914368 16.012911 141.554642
v -56.562439 12.522993 -416.823486
v -56.562439 16.012911 -416.823486
v -61.771057 12.522993 135.226700
v -61.771057 16.012911 135.226700
v 500.293549 12.522993 140.529800
v 500.293549 16.012911 140.529800
v 505.502167 12.522993 -411.520386
v 505.502167 16.012911 -411.520386
v 456.013794 16.012911 140.112015
v 461.222412 12.522993 -411.938171
v 456.013794 12.522993 140.112015
v 461.222412 16.012911 -411.938171
v 613.686035 12.522993 -364.183319
v 613.686035 16.012911 -364.183319
v -56.999390 12.522993 -370.511292
v -56.999390 16.012911 -370.511292
v 505.065216 16.012911 -365.208191
v 505.065216 12.522993 -365.208191
v 460.785461 16.012911 -365.625946
v 460.785461 12.522993 -365.625946
v 613.263916 16.012911 -319.446716
v -57.421478 12.522993 -325.774689
v 613.263916 12.522993 -319.446716
v -57.421478 16.012911 -325.774689
v 504.643127 16.012911 -320.471558
v 504.643127 12.522993 -320.471558
v 460.363342 16.012911 -320.889343
v 460.363342 12.522993 -320.889343
v 50.507507 16.012911 136.286057
v 55.716125 12.522993 -415.764099
v 50.507507 12.522993 136.286057
v 55.716125 16.012911 -415.764099
v 55.279175 16.012911 -369.451935
v 55.279175 12.522993 -369.451935
v 54.857086 12.522993 -324.715332
v 54.857086 16.012911 -324.715332
v 348.679413 16.012911 -321.943115
v 456.880432 16.012911 48.259003
v 348.162048 16.012911 -179.151459
v 306.719391 16.012911 -138.719635
v 306.719391 16.012911 -89.696060
v 316.321899 16.012911 -89.190613
v 374.948090 16.012911 -26.521317
v 373.937286 16.012911 47.772171
v 303.507660 16.012911 -322.369293
v 456.447571 16.012911 94.133362
v 340.471832 16.012911 94.122467
v 340.471863 16.012911 -18.459587
v 296.223145 16.012911 -66.629021
v 263.176819 16.012911 -66.068993
v 263.176697 16.012911 -159.607193
v 303.504578 16.012911 -200.495209
v 482.005554 16.012911 94.201035
v 482.072449 16.012911 94.201218
v 482.072449 16.012911 49.975464
v 482.072449 16.012911 49.975464
v 458.869415 16.012911 -162.550659
v 503.153198 16.012911 -162.559998
v 303.654053 16.012911 -367.108490
v 53.213165 16.012911 -150.480896
v 145.128220 16.012911 -150.484116
v 189.937180 16.012911 -150.485687
v 188.816925 16.012911 -11.578537
v 207.860687 16.012911 -11.578499
v 207.860718 16.012911 11.385986
v 125.524521 16.012911 11.385971
v 124.964417 16.012911 -12.698730
v 144.568237 16.012911 -12.698715
v 53.413773 16.012911 -171.742111
v 52.452087 16.012911 -69.816513
v 23.024490 16.012911 -69.829895
v 12.382416 16.012911 -60.308037
v 12.382416 16.012911 -22.780693
v 21.344131 16.012911 -12.138596
v 21.344147 16.012911 7.465240
v 9.581848 16.012911 18.667419
v -13.382599 16.012911 18.667435
v -21.784302 16.012911 7.465225
v -21.784302 16.012911 -15.499252
v -11.142181 16.012911 -25.581261
v -10.582092 16.012911 -83.832649
v 20.784012 16.012911 -111.277992
v 21.344131 16.012911 -172.890030
v 504.643127 14.985557 -320.471558
v 505.065216 14.985557 -365.208191
v 460.363342 14.985557 -320.889343
v 460.785461 14.985557 -365.625946
v 503.153198 14.985557 -162.559998
v 458.869415 14.985557 -162.550659
v 348.679413 14.985557 -321.943115
v 456.447571 14.985557 94.133362
v 456.880432 14.985557 48.259003
v 348.162048 14.985557 -179.151459
v 306.719391 14.985557 -138.719635
v 306.719391 14.985557 -89.696060
v 316.321899 14.985557 -89.190613
v 374.948090 14.985557 -26.521317
v 373.937286 14.985557 47.772171
v 303.507660 14.985557 -322.369293
v 340.471832 14.985557 94.122467
v 340.471863 14.985557 -18.459587
v 296.223145 14.985557 -66.629021
v 263.176819 14.985557 -66.068993
v 263.176697 14.985557 -159.607193
v 303.504578 14.985557 -200.495209
v 482.005554 14.985557 94.201035
v 482.072449 14.985557 94.201218
v 482.072449 14.985557 49.975464
v 482.072449 14.985557 49.975464
v 303.654053 14.985557 -367.108490
v 52.452087 14.985557 -69.816513
v 53.213165 14.985557 -150.480896
v 145.128220 14.985557 -150.484116
v 189.937180 14.985557 -150.485687
v 188.816925 14.985557 -11.578537
v 207.860687 14.985557 -11.578499
v 207.860718 14.985557 11.385986
v 125.524521 14.985557 11.385971
v 124.964417 14.985557 -12.698730
v 144.568237 14.985557 -12.698715
v 53.413773 14.985557 -171.742111
v 23.024490 14.985557 -69.829895
v 12.382416 14.985557 -60.308037
v 12.382416 14.985557 -22.780693
v 21.344131 14.985557 -12.138596
v 21.344147 14.985557 7.465240
v 9.581848 14.985557 18.667419
v -13.382599 14.985557 18.667435
v -21.784302 14.985557 7.465225
v -21.784302 14.985557 -15.499252
v -11.142181 14.985557 -25.581261
v -10.582092 14.985557 -83.832649
v 20.784012 14.985557 -111.277992
v 21.344131 14.985557 -172.890030
vt 0.375000 0.041232
vt 0.625000 0.041232
vt 0.625000 0.250000
vt 0.375000 0.250000
vt 0.375000 0.458148
vt 0.625000 0.458148
vt 0.625000 0.500000
vt 0.375000 0.500000
vt 0.375000 0.729027
vt 0.625000 0.729027
vt 0.625000 0.750000
vt 0.375000 0.750000
vt 0.375000 0.959511
vt 0.625000 0.959511
vt 0.625000 1.000000
vt 0.375000 1.000000
vt 0.333148 0.729027
vt 0.333148 0.750000
vt 0.836138 0.917671
vt 0.997898 0.917671
vt 0.997898 1.001462
vt 0.836138 1.001462
vt 0.770195 0.917671
vt 0.770195 1.001462
vt 0.125000 0.729027
vt 0.165489 0.729027
vt 0.165489 0.750000
vt 0.125000 0.750000
vt 0.375000 0.943006
vt 0.625000 0.943006
vt 0.625000 0.290489
vt 0.375000 0.290489
vt 0.375000 0.791852
vt 0.625000 0.791852
vt 0.166306 0.917672
vt 0.536192 0.917671
vt 0.166306 1.001462
vt 0.181994 0.729027
vt 0.181994 0.750000
vt 0.625000 0.306994
vt 0.375000 0.306994
vt 0.165489 0.708768
vt 0.181994 0.708768
vt 0.166306 0.836731
vt 0.536602 0.836731
vt 0.125000 0.708768
vt 0.646679 0.168312
vt 0.647140 0.302734
vt 0.647140 0.302734
vt 0.646679 0.168312
vt 0.836138 0.836731
vt 0.997898 0.836731
vt 0.333148 0.708768
vt 0.375000 0.708768
vt 0.625000 0.708768
vt 0.375000 0.000000
vt 0.625000 0.000000
vt 0.625000 0.020973
vt 0.375000 0.020973
vt 0.333148 0.500000
vt 0.836138 0.002662
vt 0.997898 0.002662
vt 0.836138 0.551029
vt 0.770195 0.002662
vt 0.770195 0.550256
vt 0.770195 0.168847
vt 0.807733 0.166172
vt 0.808354 0.086164
vt 0.808254 0.086163
vt 0.770195 0.085849
vt 0.125000 0.500000
vt 0.165489 0.500000
vt 0.166306 0.002662
vt 0.597497 0.083889
vt 0.595915 0.287561
vt 0.398864 0.231304
vt 0.276258 0.229899
vt 0.275085 0.273459
vt 0.166306 0.521497
vt 0.166306 0.375554
vt 0.181994 0.500000
vt -0.000902 0.002662
vt 0.122485 0.375076
vt 0.106772 0.357668
vt 0.107299 0.289778
vt 0.120794 0.270678
vt 0.121069 0.235213
vt 0.103711 0.214747
vt 0.069515 0.214354
vt 0.056847 0.234477
vt 0.056524 0.276022
vt 0.072230 0.294443
vt 0.072245 0.399835
vt 0.118567 0.450021
vt 0.118535 0.561493
vt 0.166306 0.559964
vt -0.000902 0.836731
vt -0.000902 0.917671
vt -0.000902 1.001462
vt 0.603873 0.836731
vt 0.605109 0.578399
vt 0.543965 0.504546
vt 0.544654 0.415858
vt 0.558960 0.415108
vt 0.770195 0.836731
vt 0.398542 0.272849
vt 0.370184 0.272524
vt 0.370184 0.272524
vt 0.398542 0.272849
vt 0.558960 0.415108
vt 0.807733 0.166172
vt 0.369900 0.523839
vt 0.369900 0.523839
vt 0.544654 0.415858
vt 0.303176 0.523071
vt 0.529348 0.373949
vt 0.480147 0.372371
vt 0.478833 0.541591
vt 0.538310 0.616250
vt 0.303176 0.523071
vt 0.304277 0.273795
vt 0.118535 0.561493
vt 0.166306 0.559964
vt 0.770195 0.836731
vt 0.836138 0.836731
vt 0.836138 0.917671
vt 0.770195 0.917671
vt 0.536602 0.836731
vt 0.538310 0.616250
vt 0.478833 0.541591
vt 0.480147 0.372371
vt 0.529348 0.373949
vt 0.595915 0.287561
vt 0.597497 0.083889
vt 0.770195 0.085849
vt 0.770195 0.168847
vt 0.543965 0.504546
vt 0.605109 0.578399
vt 0.603873 0.836731
vt 0.808254 0.086163
vt 0.808354 0.086164
vt 0.807733 0.166172
vt 0.807733 0.166172
vt 0.770195 0.550256
vt 0.836138 0.551029
vt 0.536192 0.917671
vt 0.304277 0.273795
vt 0.275085 0.273459
vt 0.276258 0.229899
vt 0.398864 0.231304
vt 0.118567 0.450021
vt 0.072245 0.399835
vt 0.072230 0.294443
vt 0.056524 0.276022
vt 0.056847 0.234477
vt 0.069515 0.214354
vt 0.103711 0.214747
vt 0.121069 0.235213
vt 0.120794 0.270678
vt 0.107299 0.289778
vt 0.106772 0.357668
vt 0.122485 0.375076
vt 0.166306 0.375554
vt 0.166306 0.521497
vn 1.0000 0.0000 0.0094
vn -0.0094 0.0000 1.0000
vn -1.0000 0.0000 -0.0094
vn 0.0094 0.0000 -1.0000
vn 0.0000 -1.0000 0.0000
vn 0.0000 1.0000 0.0000
vn -0.9999 0.0000 -0.0136
vn -0.0000 0.0000 1.0000
vn -0.7303 0.0000 0.6832
vn -1.0000 0.0000 -0.0081
vn -0.0526 0.0000 0.9986
vn -0.0358 0.0000 0.9994
vn -1.0000 0.0000 0.0000
vn -0.0059 0.0000 1.0000
vn 0.0000 0.0000 -1.0000
vn 0.9997 0.0000 -0.0232
vn 0.0001 0.0000 -1.0000
vn 1.0000 0.0000 0.0041
vn 1.0000 0.0000 0.0000
vn 0.7364 0.0000 -0.6765
vn -0.0169 0.0000 -0.9999
vn 0.7120 0.0000 0.7022
vn 0.0005 0.0000 -1.0000
vn 0.0028 0.0000 -1.0000
vn -0.6668 0.0000 -0.7452
vn 0.0026 0.0000 -1.0000
vn -0.7649 0.0000 0.6441
vn -0.6897 0.0000 -0.7241
vn -0.0680 0.0000 0.9977
vn 0.8000 0.0000 -0.6000
vn 0.6877 0.0000 0.7260
vn -0.0002 0.0000 -1.0000
vn 1.0000 0.0000 0.0096
vn -1.0000 0.0000 -0.0036
vn 0.6585 0.0000 0.7526
vn 1.0000 0.0000 0.0033
vn -0.6983 0.0000 -0.7158
vn 1.0000 0.0000 0.0091
usemtl Material.001
s off
f 30/1/1 28/2/1 7/3/1 6/4/1
f 38/5/2 36/6/2 11/7/2 10/8/2
f 22/9/3 23/10/3 9/11/3 8/12/3
f 14/13/4 15/14/4 5/15/4 4/16/4
f 41/17/5 22/9/5 8/12/5 37/18/5
f 24/19/6 21/20/6 5/21/6 15/22/6
f 26/23/6 24/19/6 15/22/6 19/24/6
f 20/25/5 25/26/5 14/27/5 4/28/5
f 17/29/4 19/30/4 15/14/4 14/13/4
f 6/4/2 7/3/2 13/31/2 12/32/2
f 37/33/4 39/34/4 19/30/4 17/29/4
f 40/35/6 66/36/6 26/23/6 19/24/6 39/37/6
f 25/26/5 27/38/5 17/39/5 14/27/5
f 12/32/2 13/31/2 16/40/2 18/41/2
f 33/42/5 35/43/5 27/38/5 25/26/5
f 43/44/6 52/45/6 66/36/6 40/35/6
f 30/46/5 33/42/5 25/26/5 20/25/5
f 51/47/7 50/48/7 104/49/7 105/50/7
f 32/51/6 28/52/6 21/20/6 24/19/6
f 42/53/5 29/54/5 22/9/5 41/17/5
f 29/54/3 31/55/3 23/10/3 22/9/3
f 4/56/1 5/57/1 21/58/1 20/59/1
f 10/8/3 11/7/3 31/55/3 29/54/3
f 38/60/5 10/8/5 29/54/5 42/53/5
f 13/61/6 7/62/6 28/52/6 32/51/6 65/63/6
f 16/64/6 13/61/6 65/63/6 64/65/6 45/66/6 62/67/6 61/68/6 60/69/6 53/70/6
f 6/71/5 12/72/5 33/42/5 30/46/5
f 36/73/6 16/64/6 53/70/6 54/74/6 55/75/6 72/76/6 73/77/6 74/78/6 67/79/6 77/80/6
f 12/72/5 18/81/5 35/43/5 33/42/5
f 20/59/1 21/58/1 28/2/1 30/1/1
f 11/82/6 36/73/6 77/80/6 78/83/6 79/84/6 80/85/6 81/86/6 82/87/6 83/88/6 84/89/6 85/90/6 86/91/6 87/92/6 88/93/6 89/94/6 90/95/6 76/96/6 43/44/6 31/97/6
f 18/81/5 38/60/5 42/53/5 35/43/5
f 35/43/5 42/53/5 41/17/5 27/38/5
f 31/97/6 43/44/6 40/35/6 23/98/6
f 23/98/6 40/35/6 39/37/6 9/99/6
f 8/12/4 9/11/4 39/34/4 37/33/4
f 27/38/5 41/17/5 37/18/5 17/39/5
f 18/41/2 16/40/2 36/6/2 38/5/2
f 44/100/6 46/101/6 47/102/6 48/103/6 49/104/6 50/48/6 51/47/6 45/66/6 64/65/6 34/105/6
f 71/106/8 70/107/8 122/108/8 123/109/8
f 50/48/9 49/104/9 103/110/9 104/49/9
f 62/67/8 45/66/8 63/111/8
f 70/107/10 69/112/10 121/113/10 122/108/10
f 49/104/11 48/103/11 102/114/11 103/110/11
f 67/79/6 68/115/6 69/112/6 70/107/6 71/106/6 72/76/6 55/75/6 56/116/6 57/117/6 58/118/6 59/119/6 52/45/6 43/44/6 76/96/6
f 69/112/8 68/115/8 120/120/8 121/113/8
f 75/121/6 68/115/6 67/79/6 74/78/6
f 76/96/12 90/95/12 141/122/12 128/123/12
f 93/124/6 91/125/6 92/126/6 94/127/6
f 106/128/6 112/129/6 111/130/6 110/131/6 109/132/6 108/133/6 107/134/6 98/135/6 99/136/6 105/50/6 104/49/6 103/110/6 102/114/6 101/137/6 100/138/6 97/139/6
f 98/135/6 113/140/6 114/141/6 115/142/6 116/143/6 99/136/6
f 96/144/6 95/145/6 91/125/6 93/124/6
f 117/146/6 106/128/6 97/139/6 93/124/6 94/127/6
f 123/109/6 122/108/6 121/113/6 120/120/6 127/147/6 126/148/6 125/149/6 124/150/6
f 128/123/6 141/122/6 140/151/6 139/152/6 138/153/6 137/154/6 136/155/6 135/156/6 134/157/6 133/158/6 132/159/6 131/160/6 130/161/6 129/162/6 118/163/6 119/164/6
f 72/76/13 71/106/13 123/109/13 124/150/13
f 45/66/14 51/47/14 105/50/14 99/136/14
f 32/51/3 24/19/3 92/126/3 91/125/3
f 73/77/15 72/76/15 124/150/15 125/149/15
f 74/78/16 73/77/16 125/149/16 126/148/16
f 75/121/8 74/78/8 126/148/8 127/147/8
f 54/74/17 53/70/17 98/135/17 107/134/17
f 68/115/18 75/121/18 127/147/18 120/120/18
f 55/75/19 54/74/19 107/134/19 108/133/19
f 56/116/20 55/75/20 108/133/20 109/132/20
f 57/117/21 56/116/21 109/132/21 110/131/21
f 58/118/19 57/117/19 110/131/19 111/130/19
f 24/19/2 26/23/2 94/127/2 92/126/2
f 67/79/3 76/96/3 128/123/3 119/164/3
f 59/119/22 58/118/22 111/130/22 112/129/22
f 52/45/19 59/119/19 112/129/19 106/128/19
f 78/83/23 77/80/23 118/163/23 129/162/23
f 60/69/24 61/68/24 114/141/24 113/140/24
f 79/84/25 78/83/25 129/162/25 130/161/25
f 53/70/26 60/69/26 113/140/26 98/135/26
f 80/85/13 79/84/13 130/161/13 131/160/13
f 61/68/13 62/67/13 115/142/13 114/141/13
f 81/86/27 80/85/27 131/160/27 132/159/27
f 62/67/8 63/111/8 116/143/8 115/142/8
f 82/87/13 81/86/13 132/159/13 133/158/13
f 83/88/28 82/87/28 133/158/28 134/157/28
f 84/89/15 83/88/15 134/157/15 135/156/15
f 63/111/29 45/66/29 99/136/29 116/143/29
f 65/63/3 32/51/3 91/125/3 95/145/3
f 85/90/30 84/89/30 135/156/30 136/155/30
f 86/91/19 85/90/19 136/155/19 137/154/19
f 44/100/4 34/105/4 93/124/4 97/139/4
f 34/105/1 64/65/1 96/144/1 93/124/1
f 87/92/31 86/91/31 137/154/31 138/153/31
f 64/65/32 65/63/32 95/145/32 96/144/32
f 88/93/33 87/92/33 138/153/33 139/152/33
f 26/23/2 66/36/2 117/146/2 94/127/2
f 46/101/34 44/100/34 97/139/34 100/138/34
f 89/94/35 88/93/35 139/152/35 140/151/35
f 66/36/36 52/45/36 106/128/36 117/146/36
f 47/102/37 46/101/37 100/138/37 101/137/37
f 90/95/38 89/94/38 140/151/38 141/122/38
f 77/80/3 67/79/3 119/164/3 118/163/3
f 48/103/13 47/102/13 101/137/13 102/114/13
